# xmcd
#
# Track frame offsets:
#	150
#	8346
#	17074
#	33670
#	44557
#	55616
#	62306
#	75960
#	90574
#	98960
#	111216
#	119873
#	139407
#
# Disc length: 2082 seconds
#
# Revision: 2
# Processed by: cddbd v1.5PL3 Copyright (c) Steve Scherf et al.
# Submitted via: EasyCDDAExtractor 5.0.6
#
DISCID=a108200d
DTITLE=Compilation Musiques De Country - Artiste Inconnu
DYEAR=2004
DGENRE=country
TTITLE0=I Am a Pilgrim
TTITLE1=Little Sadie
TTITLE2=Wabash Cannonball
TTITLE3=Open Up Them Pearly Gates
TTITLE4=Open Up Them Pearly Gates
TTITLE5=Open Up Them Pearly Gates
TTITLE6=The Bank Of The Ohio
TTITLE7=The Bank Of The Ohio
TTITLE8=Standing In The Need Of Prayer
TTITLE9=Old Blues
TTITLE10=Brown Ferry Blues
TTITLE11=Deep River Blues
TTITLE12=Angel Band
EXTD=
EXTT0=
EXTT1=
EXTT2=
EXTT3=
EXTT4=
EXTT5=
EXTT6=
EXTT7=
EXTT8=
EXTT9=
EXTT10=
EXTT11=
EXTT12=
PLAYORDER=
